HIERARCHY
ROOT Hips
{
	OFFSET 0.00000 0.00000 0.00000
	CHANNELS 6 Xposition Yposition Zposition Zrotation Yrotation Xrotation 
	JOINT LHipJoint
	{
		OFFSET 0 0 0
		CHANNELS 3 Zrotation Yrotation Xrotation
		JOINT LeftUpLeg
		{
			OFFSET 1.60223 -1.58443 0.78595
			CHANNELS 3 Zrotation Yrotation Xrotation
			JOINT LeftLeg
			{
				OFFSET 2.21690 -6.09089 0.00000
				CHANNELS 3 Zrotation Yrotation Xrotation
				JOINT LeftFoot
				{
					OFFSET 2.34805 -6.45122 0.00000
					CHANNELS 3 Zrotation Yrotation Xrotation
					JOINT LeftToeBase
					{
						OFFSET 0.35452 -0.97402 1.38549
						CHANNELS 3 Zrotation Yrotation Xrotation
						End Site
						{
							OFFSET 0.00000 -0.00000 0.82816
						}
					}
				}
			}
		}
	}
	JOINT RHipJoint
	{
		OFFSET 0 0 0
		CHANNELS 3 Zrotation Yrotation Xrotation
		JOINT RightUpLeg
		{
			OFFSET -1.56524 -1.58443 0.78595
			CHANNELS 3 Zrotation Yrotation Xrotation
			JOINT RightLeg
			{
				OFFSET -2.15558 -5.92241 0.00000
				CHANNELS 3 Zrotation Yrotation Xrotation
				JOINT RightFoot
				{
					OFFSET -2.35077 -6.45870 0.00000
					CHANNELS 3 Zrotation Yrotation Xrotation
					JOINT RightToeBase
					{
						OFFSET -0.26910 -0.73935 1.33295
						CHANNELS 3 Zrotation Yrotation Xrotation
						End Site
						{
							OFFSET -0.00000 -0.00000 0.75962
						}
					}
				}
			}
		}
	}
	JOINT LowerBack
	{
		OFFSET 0 0 0
		CHANNELS 3 Zrotation Yrotation Xrotation
		JOINT Spine
		{
			OFFSET -0.05489 1.97104 -0.02993
			CHANNELS 3 Zrotation Yrotation Xrotation
			JOINT Spine1
			{
				OFFSET -0.00702 1.94230 0.13626
				CHANNELS 3 Zrotation Yrotation Xrotation
				JOINT Neck
				{
					OFFSET 0 0 0
					CHANNELS 3 Zrotation Yrotation Xrotation
					JOINT Neck1
					{
						OFFSET -0.07858 1.62869 -0.02510
						CHANNELS 3 Zrotation Yrotation Xrotation
						JOINT Head
						{
							OFFSET 0.13978 1.59213 -0.29859
							CHANNELS 3 Zrotation Yrotation Xrotation
							End Site
							{
								OFFSET 0.05353 1.64420 -0.10000
							}
						}
					}
				}
				JOINT LeftShoulder
				{
					OFFSET 0 0 0
					CHANNELS 3 Zrotation Yrotation Xrotation
					JOINT LeftArm
					{
						OFFSET 3.48263 1.15278 0.52941
						CHANNELS 3 Zrotation Yrotation Xrotation
						JOINT LeftForeArm
						{
							OFFSET 4.59207 -0.00000 -0.00000
							CHANNELS 3 Zrotation Yrotation Xrotation
							JOINT LeftHand
							{
								OFFSET 2.98109 -0.00000 -0.00000
								CHANNELS 3 Zrotation Yrotation Xrotation
								JOINT LeftFingerBase
								{
									OFFSET 0 0 0
									CHANNELS 3 Zrotation Yrotation Xrotation
									JOINT LeftHandIndex1
									{
										OFFSET 0.48020 -0.00000 -0.00000
										CHANNELS 3 Zrotation Yrotation Xrotation
										End Site
										{
											OFFSET 0.38715 -0.00000 -0.00000
										}
									}
								}
								JOINT LThumb
								{
									OFFSET 0 0 0
									CHANNELS 3 Zrotation Yrotation Xrotation
									End Site
									{
										OFFSET 0.39306 -0.00000 0.39306
									}
								}
							}
						}
					}
				}
				JOINT RightShoulder
				{
					OFFSET 0 0 0
					CHANNELS 3 Zrotation Yrotation Xrotation
					JOINT RightArm
					{
						OFFSET -3.52496 1.12722 0.24548
						CHANNELS 3 Zrotation Yrotation Xrotation
						JOINT RightForeArm
						{
							OFFSET -4.76508 -0.00000 -0.00000
							CHANNELS 3 Zrotation Yrotation Xrotation
							JOINT RightHand
							{
								OFFSET -2.78902 -0.00000 -0.00000
								CHANNELS 3 Zrotation Yrotation Xrotation
								JOINT RightFingerBase
								{
									OFFSET 0 0 0
									CHANNELS 3 Zrotation Yrotation Xrotation
									JOINT RightHandIndex1
									{
										OFFSET -0.72130 -0.00000 -0.00000
										CHANNELS 3 Zrotation Yrotation Xrotation
										End Site
										{
											OFFSET -0.58153 -0.00000 -0.00000
										}
									}
								}
								JOINT RThumb
								{
									OFFSET 0 0 0
									CHANNELS 3 Zrotation Yrotation Xrotation
									End Site
									{
										OFFSET -0.59041 -0.00000 0.59041
									}
								}
							}
						}
					}
				}
			}
		}
	}
}
MOTION
Frames: 15
Frame Time: .0083333
24.849 15.8318 0.1659 0 0 0 0 0 0 -21 0 0 0 0 0 0 0 0 0 0 0 0 0 0 21 0 0 0 0 0 0 0 0 0 0 0 0 0 0 0 0 0 0 0 0 0 0 -16 0 0 21 0 0 11 0 0 0 -8 0 0 0 0 0 0 0 0 0 0 0 0 0 0 0 0 0 0 0 0 8 0 0 0 0 0 0 0 0 0 0 0 0 0 0 0 0 0
24.8490 15.8318 0.1659 42.8206 -82.6159 -37.1337 0.0000 0.0000 0.0000 -28.9792 -7.2214 -14.8053 3.0049 10.7030 31.2845 1.5853 -10.8631 -22.6961 1.0225 -6.4329 -18.0457 0.0000 0.0000 0.0000 13.5737 5.1301 -16.3703 -3.2279 -11.0552 32.4663 -1.2565 -5.9460 -24.0860 -2.6239 -10.0598 29.1706 -10.2248 0.9788 -3.1261 0.2582 1.0978 -6.7596 5.9891 1.0119 -5.6068 -10.3759 -5.6217 0.3906 9.4754 -8.1711 7.8630 4.3040 -4.1415 3.0771 -0.0000 0.0000 0.0000 -102.4169 13.1309 8.7588 30.1788 -41.0462 -11.5269 -0.0000 -0.0000 32.3457 16.8388 40.2603 11.0671 -7.1250 0.0000 -0.0000 -27.8992 69.6353 -16.8988 -0.0000 0.0000 0.0000 91.1490 -10.5003 -11.3114 -11.7627 19.4478 -2.0226 0.0000 0.0000 14.3121 3.2290 52.0277 2.5465 7.1250 -0.0000 -0.0000 20.2538 19.4569 27.2088
24.8524 15.8267 0.1755 39.5004 -82.8214 -33.9375 0.0000 0.0000 0.0000 -28.4970 -7.6020 -14.7936 3.0894 10.8384 31.7369 1.6239 -10.7363 -22.9501 0.9539 -6.2197 -17.4231 0.0000 0.0000 0.0000 14.1041 5.3154 -16.0734 -3.1850 -10.9887 32.2419 -1.4115 -6.1942 -25.4408 -1.8903 -8.6338 24.6562 -9.7073 0.9724 -2.9210 0.3769 1.0772 -6.7716 5.8215 0.9856 -5.7114 -13.1055 -5.5278 -0.1355 12.5069 -8.2906 8.7495 5.6692 -4.1868 3.6698 -0.0000 0.0000 0.0000 -102.5363 14.0686 16.5023 29.4785 -40.4422 -11.0698 -0.0000 -0.0000 10.1361 22.5467 50.8694 17.8511 -7.1250 0.0000 -0.0000 -52.3854 79.1926 -43.2501 -0.0000 0.0000 0.0000 91.1915 -10.4881 -13.6110 -11.5381 19.1083 -1.9484 0.0000 0.0000 15.6374 2.7806 51.8910 2.1886 7.1250 -0.0000 -0.0000 20.0582 19.3629 26.8995
24.8511 15.8256 0.1837 36.8867 -83.0521 -31.5402 0.0000 0.0000 0.0000 -28.0830 -7.6249 -14.7085 3.1497 10.9336 32.0561 1.6541 -10.7752 -23.1610 0.9345 -6.1577 -17.2427 0.0000 0.0000 0.0000 14.5945 5.4163 -15.6108 -3.1170 -10.8821 31.8833 -1.5571 -6.4138 -26.6446 -1.1331 -6.7607 19.0083 -9.2081 0.9637 -2.6920 0.4589 1.0545 -6.7498 5.6251 0.9555 -5.7932 -13.2173 -5.4825 -0.1355 12.7181 -8.2617 8.8703 5.7568 -4.1714 3.7142 0.0000 0.0000 0.0000 -102.5201 14.1204 17.5848 29.3578 -40.3365 -10.9916 -0.0000 -0.0000 6.9063 32.3211 51.0630 26.2031 -7.1250 0.0000 -0.0000 -48.1028 83.6435 -43.1839 0.0000 0.0000 0.0000 91.2617 -10.4890 -15.5513 -11.3823 18.8718 -1.8977 0.0000 0.0000 16.5643 2.8063 51.8636 2.2080 7.1250 -0.0000 -0.0000 20.0661 19.3348 26.9057
24.8473 15.8276 0.1935 35.0499 -83.3970 -29.8975 0.0000 0.0000 0.0000 -27.6882 -7.4923 -14.7278 3.2284 11.0560 32.4689 1.7030 -10.8715 -23.5019 0.9203 -6.1119 -17.1095 0.0000 0.0000 0.0000 15.0520 5.5349 -15.1412 -3.0357 -10.7526 31.4500 -1.6961 -6.5925 -27.7276 -0.4918 -4.4964 12.4777 -8.6857 0.9758 -2.5509 0.5307 1.0707 -6.7111 5.4048 0.9393 -5.8125 -13.2948 -5.4255 -0.1469 12.8680 -8.2088 8.9804 5.8206 -4.1442 3.7502 0.0000 -0.0000 0.0000 -102.5048 13.7760 17.0606 28.7271 -39.7771 -10.5857 -0.0000 -0.0000 7.3291 28.0931 47.6888 21.5412 -7.1250 0.0000 -0.0000 -32.6412 79.7437 -26.6868 0.0000 -0.0000 0.0000 91.3706 -10.5052 -16.9879 -11.3181 18.7741 -1.8770 0.0000 0.0000 16.8924 3.1345 51.8002 2.4642 7.1250 -0.0000 -0.0000 20.1942 19.2491 27.0789
24.8471 15.8337 0.2054 33.4819 -83.7191 -28.4483 0.0000 0.0000 0.0000 -27.3736 -7.3455 -14.8520 3.2955 11.1586 32.8167 1.7437 -10.8264 -23.7712 1.0128 -6.4030 -17.9584 0.0000 0.0000 0.0000 15.4247 5.6403 -14.7775 -2.9561 -10.6236 31.0208 -1.8440 -6.7166 -28.7976 -0.0974 -2.0130 5.5417 -8.2348 0.9822 -2.4437 0.6215 1.0825 -6.6822 5.2452 0.9251 -5.8268 -13.3041 -5.3955 -0.2591 12.8528 -8.1701 9.1505 5.8163 -4.1227 3.8141 0.0000 -0.0000 0.0000 -102.5214 13.5513 16.6296 28.1912 -39.2917 -10.2446 -0.0000 -0.0000 7.7828 29.1700 47.7281 22.4427 -7.1250 0.0000 -0.0000 -31.3723 80.2374 -25.9177 0.0000 -0.0000 0.0000 91.4863 -10.5215 -17.9880 -11.3030 18.7511 -1.8721 0.0000 0.0000 16.9489 3.0103 51.6580 2.3619 7.1250 -0.0000 -0.0000 20.1303 19.1245 26.9592
24.8504 15.8419 0.2232 28.9191 -84.1978 -24.1704 0.0000 0.0000 0.0000 -26.7429 -7.0781 -14.8903 3.3559 11.2501 33.1281 1.7808 -10.6385 -24.0037 1.2806 -7.1715 -20.2245 0.0000 0.0000 0.0000 16.1694 5.6876 -14.2751 -2.8852 -10.5069 30.6343 -2.2443 -6.6934 -31.3079 -0.2438 3.1772 -8.7723 -7.2789 1.0314 -2.0934 0.7384 1.1445 -6.6399 4.8233 0.9148 -5.9525 -13.1212 -5.4127 -0.4398 12.6109 -8.1759 9.3845 5.7025 -4.1216 3.8986 0.0000 -0.0000 0.0000 -102.4254 13.5049 16.3704 27.7723 -38.9058 -9.9804 -0.0000 -0.0000 8.2198 33.9581 50.4936 27.4563 -7.1250 0.0000 -0.0000 -42.2764 84.1623 -38.1956 0.0000 -0.0000 0.0000 91.7067 -10.5606 -18.6315 -11.3253 18.7851 -1.8793 0.0000 0.0000 16.8550 2.7534 51.5391 2.1566 7.1250 -0.0000 -0.0000 20.0138 19.0322 26.7682
24.8487 15.8448 0.2262 29.8243 -84.3538 -25.1037 0.0000 0.0000 0.0000 -26.7756 -6.9587 -15.0243 3.3970 11.3115 33.3379 1.8065 -10.5252 -24.1659 1.4451 -7.5995 -21.5040 0.0000 0.0000 0.0000 16.1596 5.7798 -14.0870 -2.8397 -10.4308 30.3835 -2.2311 -6.6550 -31.2072 -0.2312 3.0948 -8.5427 -7.1967 1.0181 -2.0301 0.7009 1.1216 -6.6353 4.7373 0.8985 -5.9759 -12.8924 -5.4161 -0.6147 12.3499 -8.1576 9.5672 5.5771 -4.1078 3.9610 -0.0000 -0.0000 0.0000 -102.2681 13.4295 15.8783 27.1821 -38.3523 -9.6119 -0.0000 -0.0000 8.9319 36.4816 51.7011 30.1275 -7.1250 0.0000 -0.0000 -54.7362 85.8674 -51.2867 -0.0000 -0.0000 0.0000 91.9660 -10.6190 -18.8069 -11.3933 18.8886 -1.9013 0.0000 0.0000 16.4797 2.7061 51.5566 2.1200 7.1250 -0.0000 -0.0000 19.9960 19.0525 26.7460
24.8484 15.8434 0.2293 31.5679 -84.4687 -26.8345 0.0000 0.0000 0.0000 -26.8870 -6.9516 -15.0957 3.4253 11.3536 33.4819 1.8304 -10.4467 -24.3190 1.4670 -7.6543 -21.6689 0.0000 0.0000 0.0000 16.0313 5.8228 -14.0303 -2.8106 -10.3819 30.2227 -2.2104 -6.5838 -31.0424 -0.2304 3.0896 -8.5284 -7.2083 0.9878 -2.0513 0.6426 1.0843 -6.5685 4.6843 0.8743 -5.8854 -12.6222 -5.4076 -0.8888 12.1100 -8.1076 9.6835 5.4510 -4.0722 4.0156 -0.0000 -0.0000 0.0000 -102.0979 13.1954 15.2079 26.4075 -37.6083 -9.1352 -0.0000 -0.0000 9.6360 36.8858 52.0557 30.6170 -7.1250 0.0000 -0.0000 -60.1470 86.1382 -56.7362 -0.0000 -0.0000 0.0000 92.2424 -10.5302 -18.6496 -11.4996 19.0500 -1.9359 0.0000 0.0000 15.9830 2.7431 51.6422 2.1516 7.1250 -0.0000 -0.0000 20.0192 19.1306 26.7959
24.8481 15.8435 0.2316 32.4907 -84.6333 -27.7071 0.0000 0.0000 0.0000 -26.8815 -6.9402 -15.1591 3.4274 11.3567 33.4926 1.8426 -10.3354 -24.3924 1.4841 -7.6969 -21.7971 0.0000 0.0000 0.0000 16.0036 5.8688 -14.1232 -2.8121 -10.3845 30.2311 -2.2028 -6.4385 -30.9169 -0.2142 2.9794 -8.2215 -7.1749 0.9455 -2.1092 0.6488 1.0382 -6.4926 4.6749 0.8443 -5.7627 -12.3857 -5.3923 -1.2889 11.8531 -8.0391 9.8883 5.3228 -4.0250 4.1167 0.0000 -0.0000 0.0000 -101.9820 12.9465 14.4947 25.6572 -36.8682 -8.6812 -0.0000 -0.0000 10.3051 37.0754 52.9229 31.0837 -7.1250 0.0000 -0.0000 -73.6315 86.2641 -70.0072 0.0000 -0.0000 0.0000 92.4911 -10.3680 -18.2316 -11.6365 19.2572 -1.9808 0.0000 0.0000 15.4137 2.9214 51.6171 2.2908 7.1250 -0.0000 -0.0000 20.0901 19.0927 26.8932
24.8478 15.8448 0.2335 32.8751 -84.8587 -27.9874 0.0000 0.0000 0.0000 -26.7773 -6.9304 -15.2799 3.4251 11.3534 33.4811 1.8435 -10.2274 -24.3919 1.4663 -7.6526 -21.6637 0.0000 0.0000 0.0000 16.0641 5.8539 -14.3120 -2.8181 -10.3945 30.2640 -2.1997 -6.2212 -30.7807 -0.2015 2.8901 -7.9731 -7.0979 0.9126 -2.1486 0.7073 0.9968 -6.5377 4.6951 0.8224 -5.7816 -12.3518 -5.3295 -1.4738 11.7135 -7.9404 10.1305 5.2739 -3.9749 4.2017 -0.0000 -0.0000 0.0000 -101.9278 12.9268 13.5832 24.9880 -36.1917 -8.2828 -0.0000 -0.0000 11.4800 36.6637 53.2852 30.8254 -7.1250 0.0000 -0.0000 -77.5963 86.0521 -73.7034 -0.0000 -0.0000 0.0000 92.6940 -10.3843 -17.6279 -11.7711 19.4605 -2.0254 0.0000 0.0000 14.8613 3.0160 51.5689 2.3634 7.1250 -0.0000 -0.0000 20.1244 19.0397 26.9336
24.8466 15.8460 0.2352 34.9427 -85.0552 -29.9365 0.0000 0.0000 0.0000 -26.8219 -6.8789 -15.4224 3.4257 11.3542 33.4841 1.8466 -10.1310 -24.4068 1.4412 -7.5896 -21.4743 0.0000 0.0000 0.0000 15.9795 5.7891 -14.5049 -2.8190 -10.3961 30.2692 -2.1998 -5.9743 -30.6495 -0.2148 2.9839 -8.2339 -7.1551 0.9055 -2.2654 0.7178 0.9905 -6.5848 4.7399 0.8218 -5.7672 -12.2816 -5.2639 -1.4681 11.5701 -7.8452 10.2030 5.2231 -3.9316 4.2025 0.0000 -0.0000 0.0000 -101.8475 12.9250 12.4326 24.2738 -35.4525 -7.8648 -0.0000 -0.0000 13.1395 36.1186 52.9731 30.2236 -7.1250 0.0000 -0.0000 -71.6086 85.8481 -67.6146 0.0000 -0.0000 0.0000 92.9107 -10.3453 -17.0966 -11.8812 19.6263 -2.0622 0.0000 0.0000 14.5294 3.0850 51.5988 2.4185 7.1250 -0.0000 -0.0000 20.1555 19.0625 26.9842
24.8418 15.8475 0.2366 37.5798 -85.3464 -32.5227 0.0000 0.0000 0.0000 -26.8417 -6.7154 -15.5021 3.4268 11.3558 33.4894 1.8624 -9.9937 -24.5043 1.4357 -7.5757 -21.4325 0.0000 0.0000 0.0000 15.9461 5.8645 -14.5540 -2.8160 -10.3911 30.2529 -2.2079 -5.7254 -30.5683 -0.2121 2.9647 -8.1806 -7.1787 0.9364 -2.4552 0.7334 1.0484 -6.5390 4.7707 0.8456 -5.6188 -12.1387 -5.2078 -1.5307 11.4084 -7.7479 10.1977 5.1527 -3.8821 4.1881 0.0000 0.0000 0.0000 -101.7264 12.8079 11.2530 23.4823 -34.6120 -7.4105 -0.0000 -0.0000 14.5974 35.9629 52.4865 29.9211 -7.1250 0.0000 -0.0000 -64.6538 85.7624 -60.7555 0.0000 0.0000 0.0000 93.1128 -10.1595 -16.4432 -11.9870 19.7852 -2.0979 0.0000 0.0000 14.1489 3.3226 51.6949 2.6084 7.1250 -0.0000 -0.0000 20.2615 19.1353 27.1562
24.8380 15.8492 0.2381 38.9153 -85.6848 -33.8356 0.0000 0.0000 0.0000 -26.7216 -6.6064 -15.5373 3.4258 11.3543 33.4843 1.8844 -9.8174 -24.6414 1.4438 -7.5962 -21.4942 0.0000 0.0000 0.0000 16.0700 6.0562 -14.5238 -2.8105 -10.3818 30.2222 -2.2078 -5.5714 -30.4881 -0.1942 2.8379 -7.8277 -7.0835 0.9592 -2.5551 0.8070 1.0908 -6.5220 4.7951 0.8610 -5.5478 -12.1551 -5.1300 -1.6390 11.3773 -7.6341 10.3032 5.1501 -3.8246 4.2237 -0.0000 -0.0000 0.0000 -101.6187 12.7847 10.1652 22.7191 -33.7802 -6.9815 -0.0000 -0.0000 15.6596 36.7224 52.1768 30.5091 -7.1250 0.0000 -0.0000 -61.6435 86.0793 -58.1315 -0.0000 -0.0000 0.0000 93.2829 -10.0197 -15.6412 -12.0866 19.9343 -2.1317 0.0000 0.0000 13.6879 3.3929 51.7342 2.6651 7.1250 -0.0000 -0.0000 20.2938 19.1671 27.2107
24.8365 15.8504 0.2391 40.5783 -85.9443 -35.4906 0.0000 0.0000 0.0000 -26.6615 -6.5165 -15.5581 3.4243 11.3522 33.4769 1.9031 -9.6801 -24.7588 1.4604 -7.6378 -21.6192 0.0000 0.0000 0.0000 16.1329 6.2098 -14.4778 -2.8001 -10.3642 30.1645 -2.1969 -5.4625 -30.3651 -0.1845 2.7666 -7.6295 -7.0595 0.9500 -2.5588 0.8828 1.0800 -6.5453 4.8619 0.8577 -5.5704 -12.2391 -5.0328 -1.7174 11.3570 -7.4982 10.4452 5.1645 -3.7599 4.2653 0.0000 0.0000 0.0000 -101.5524 12.9102 9.0448 22.0635 -33.0487 -6.6204 -0.0000 -0.0000 16.5741 37.9020 51.5862 31.3839 -7.1250 0.0000 -0.0000 -54.3438 86.5326 -51.4739 0.0000 0.0000 0.0000 93.4374 -9.8144 -15.0771 -12.1183 19.9818 -2.1425 0.0000 0.0000 13.5448 3.3906 51.6878 2.6616 7.1250 -0.0000 -0.0000 20.2887 19.1234 27.1943
